<mxfile host="app.diagrams.net" agent="Mozilla/5.0 (Windows NT 10.0; Win64; x64) AppleWebKit/537.36 (KHTML, like Gecko) Chrome/138.0.0.0 Safari/537.36 Edg/138.0.0.0" version="28.0.7">
  <diagram name="Trang-1" id="ZjBEHZYdZLVBcV3wpixS">
    <mxGraphModel dx="978" dy="527" grid="1" gridSize="10" guides="1" tooltips="1" connect="1" arrows="1" fold="1" page="1" pageScale="1" pageWidth="827" pageHeight="1169" math="0" shadow="0">
      <root>
        <mxCell id="0" />
        <mxCell id="1" parent="0" />
        <mxCell id="8NLxf3ELdVOv6Vscb2sZ-1" value="intercom_fsm" style="rounded=0;whiteSpace=wrap;html=1;" vertex="1" parent="1">
          <mxGeometry x="354" y="150" width="120" height="60" as="geometry" />
        </mxCell>
        <mxCell id="8NLxf3ELdVOv6Vscb2sZ-2" value="wireless_comm" style="rounded=0;whiteSpace=wrap;html=1;" vertex="1" parent="1">
          <mxGeometry x="144" y="270" width="120" height="60" as="geometry" />
        </mxCell>
        <mxCell id="8NLxf3ELdVOv6Vscb2sZ-3" value="espnow" style="rounded=0;whiteSpace=wrap;html=1;" vertex="1" parent="1">
          <mxGeometry x="144" y="390" width="120" height="40" as="geometry" />
        </mxCell>
        <mxCell id="8NLxf3ELdVOv6Vscb2sZ-4" value="nrf24" style="rounded=0;whiteSpace=wrap;html=1;" vertex="1" parent="1">
          <mxGeometry x="144" y="440" width="120" height="40" as="geometry" />
        </mxCell>
        <mxCell id="8NLxf3ELdVOv6Vscb2sZ-5" value="lora" style="rounded=0;whiteSpace=wrap;html=1;" vertex="1" parent="1">
          <mxGeometry x="144" y="490" width="120" height="40" as="geometry" />
        </mxCell>
        <mxCell id="8NLxf3ELdVOv6Vscb2sZ-6" value="" style="endArrow=none;dashed=1;html=1;dashPattern=1 3;strokeWidth=2;rounded=0;" edge="1" parent="1">
          <mxGeometry width="50" height="50" relative="1" as="geometry">
            <mxPoint x="120" y="360" as="sourcePoint" />
            <mxPoint x="720" y="360" as="targetPoint" />
          </mxGeometry>
        </mxCell>
        <mxCell id="8NLxf3ELdVOv6Vscb2sZ-7" value="" style="endArrow=none;dashed=1;html=1;dashPattern=1 3;strokeWidth=2;rounded=0;" edge="1" parent="1">
          <mxGeometry width="50" height="50" relative="1" as="geometry">
            <mxPoint x="120" y="240" as="sourcePoint" />
            <mxPoint x="720" y="240" as="targetPoint" />
          </mxGeometry>
        </mxCell>
        <mxCell id="8NLxf3ELdVOv6Vscb2sZ-8" value="audio" style="rounded=0;whiteSpace=wrap;html=1;" vertex="1" parent="1">
          <mxGeometry x="310" y="270" width="120" height="60" as="geometry" />
        </mxCell>
        <mxCell id="8NLxf3ELdVOv6Vscb2sZ-9" value="i2s" style="rounded=0;whiteSpace=wrap;html=1;" vertex="1" parent="1">
          <mxGeometry x="310" y="390" width="120" height="40" as="geometry" />
        </mxCell>
        <mxCell id="8NLxf3ELdVOv6Vscb2sZ-10" value="adc" style="rounded=0;whiteSpace=wrap;html=1;" vertex="1" parent="1">
          <mxGeometry x="310" y="440" width="120" height="40" as="geometry" />
        </mxCell>
        <mxCell id="8NLxf3ELdVOv6Vscb2sZ-13" value="" style="endArrow=classic;html=1;rounded=0;" edge="1" parent="1">
          <mxGeometry width="50" height="50" relative="1" as="geometry">
            <mxPoint x="369.71" y="380" as="sourcePoint" />
            <mxPoint x="369.71" y="340" as="targetPoint" />
          </mxGeometry>
        </mxCell>
        <mxCell id="8NLxf3ELdVOv6Vscb2sZ-14" value="" style="endArrow=classic;html=1;rounded=0;" edge="1" parent="1">
          <mxGeometry width="50" height="50" relative="1" as="geometry">
            <mxPoint x="380" y="340" as="sourcePoint" />
            <mxPoint x="380" y="380" as="targetPoint" />
          </mxGeometry>
        </mxCell>
        <mxCell id="8NLxf3ELdVOv6Vscb2sZ-15" value="" style="endArrow=classic;html=1;rounded=0;" edge="1" parent="1">
          <mxGeometry width="50" height="50" relative="1" as="geometry">
            <mxPoint x="198.57" y="380" as="sourcePoint" />
            <mxPoint x="198.57" y="340" as="targetPoint" />
          </mxGeometry>
        </mxCell>
        <mxCell id="8NLxf3ELdVOv6Vscb2sZ-16" value="" style="endArrow=classic;html=1;rounded=0;" edge="1" parent="1">
          <mxGeometry width="50" height="50" relative="1" as="geometry">
            <mxPoint x="208.86" y="340" as="sourcePoint" />
            <mxPoint x="208.86" y="380" as="targetPoint" />
          </mxGeometry>
        </mxCell>
        <mxCell id="8NLxf3ELdVOv6Vscb2sZ-17" value="" style="endArrow=classic;html=1;rounded=0;" edge="1" parent="1">
          <mxGeometry width="50" height="50" relative="1" as="geometry">
            <mxPoint x="408" y="260" as="sourcePoint" />
            <mxPoint x="408" y="220" as="targetPoint" />
          </mxGeometry>
        </mxCell>
        <mxCell id="8NLxf3ELdVOv6Vscb2sZ-18" value="" style="endArrow=classic;html=1;rounded=0;" edge="1" parent="1">
          <mxGeometry width="50" height="50" relative="1" as="geometry">
            <mxPoint x="418.29" y="220" as="sourcePoint" />
            <mxPoint x="418.29" y="260" as="targetPoint" />
          </mxGeometry>
        </mxCell>
        <mxCell id="8NLxf3ELdVOv6Vscb2sZ-19" value="peer_manager" style="rounded=0;whiteSpace=wrap;html=1;" vertex="1" parent="1">
          <mxGeometry x="474" y="270" width="120" height="60" as="geometry" />
        </mxCell>
      </root>
    </mxGraphModel>
  </diagram>
</mxfile>
